<svg xmlns="http://www.w3.org/2000/svg" 
    data-name="Layer 1" viewBox="0 0 800 800">
    <circle cx="400" cy="400" r="400" style="fill:#0d4a5a"/>
    <path d="M800 403.47v.03c-.14 18.35-1.52 36.4-4.08 54.11-3.62-12.34-8.37-24.2-14.17-35.45-32.38-62.91-97.01-106.52-172.02-109.03-2.26-.08-4.51-.11-6.77-.11-3.13 0-6.23.08-9.3.22h-.05s-.03 0-.03.03c-35.59 1.6-68.79 12.51-97.2 30.31-.03 0-.08.03-.11.08-8.76 5.46-17.07 11.64-24.85 18.38-.14.11-.24.19-.38.33a403.05 403.05 0 0 0-59.33 58.78l-.03.03c-4.32 5.25-8.48 10.6-12.51 16.07a402.664 402.664 0 0 0-26.75 41.27c-.98 1.77-1.96 3.53-2.94 5.3-31.02 56.99-48.64 122.35-48.64 191.79 0 18.32 1.22 36.38 3.62 54.05.54 4.13 1.17 8.21 1.82 12.29v.03c.38 2.15.76 4.27 1.14 6.39 2.94 16.07 6.82 31.78 11.61 47.12a400.87 400.87 0 0 1-32.41-6.36c-3.86-.9-7.67-1.88-11.47-2.91-1.9-.52-3.78-1.03-5.68-1.58a395.577 395.577 0 0 1-37.17-12.7 397.423 397.423 0 0 1-70.04-36.24c56.99-103.45 89.4-222.32 89.4-348.77 0-7.01-.11-14-.33-20.99a254.872 254.872 0 0 0-86.43-35.62h-.03c-17.08-3.59-34.77-5.46-52.94-5.46-47.39 0-91.82 12.83-129.93 35.24 1.14-11.53 2.77-22.87 4.87-34.07V326c39.99-29.85 88.96-48.29 142.14-50.6h.03c3.72-.16 7.5-.24 11.28-.24 37.74 0 73.6 8.13 105.9 22.76a717.737 717.737 0 0 0-27.35-127.05 709.538 709.538 0 0 0-24.01-65.5 725.636 725.636 0 0 0-22.08-47.47c8.92-5.41 18.05-10.49 27.41-15.2 2.88 3.7 5.74 7.42 8.54 11.17a731.883 731.883 0 0 1 47.39 71.94c15.04 26.1 28.52 53.23 40.24 81.27a708.72 708.72 0 0 1 28.85 82.41c7.48 26.4 13.49 53.42 17.92 80.97 15.66-18.03 32.87-34.67 51.47-49.67 1.44-1.17 2.88-2.31 4.32-3.45h.03c46-36.11 100.08-62.4 159.05-75.72 16.12-25.45 25.42-55.63 25.42-87.95 0-51.09-23.22-96.71-59.71-126.97a397.895 397.895 0 0 1 72.16 36.6h.03c29.2 29.72 47.25 70.5 47.25 115.5 0 18.62-3.1 36.51-8.78 53.18 4.13-.14 8.27-.19 12.43-.19 35.24 0 69.38 4.54 101.96 13.05 4.59 10.88 8.7 22 12.34 33.33-13.05-1.9-26.32-3.18-39.75-3.81-6.23-.3-12.51-.43-18.81-.43-14.27 0-28.33.73-42.2 2.2 52.75 20.28 94.78 62.15 115.23 114.84v.03c1.63 4.11 3.1 8.27 4.43 12.51Z" style="fill:#fff"/>
    <path d="M664.24 368.07c36.21 19.91 55.24 58.93 51.46 97.6-22.63 4.75-46.99 1.73-68.83-10.27-36.21-19.91-55.24-58.93-51.42-97.61 22.59-4.74 46.96-1.72 68.79 10.29ZM77.18 387.25c31.09-27.22 74.27-31.76 109.31-14.98-3.27 22.89-14.44 44.75-33.19 61.17-31.09 27.22-74.27 31.76-109.31 14.95 3.27-22.85 14.44-44.72 33.19-61.13Zm257.95-255.63c0-41.32 25.02-76.8 60.72-92.12 15.07 17.54 24.16 40.34 24.16 65.26 0 41.32-25.02 76.8-60.75 92.09-15.04-17.51-24.14-40.31-24.14-65.23Z" style="fill:#b9ff47"/>
</svg>